PathFileType	4	(X/Y/Z)	Trial.trc
DataRate	CameraRate	NumFrames	NumMarkers	Units	OrigDataRate	OrigDataStartFrame	OrigNumFrames
9	9	10	2	mm	9	1	10
Frame#	Time	Marker1			Marker2		
		X1	Y1	Z1	X2	Y2	Z2
1	0	-0.166096350100514	0.618032818187921	0.803708676845307	0.91812732994961	0.393711257335847	1.30064692311036
2	0.111111111111111	0.433643038530747	-0.452710271249851	1.81960814227043	-1.6110290415225	-1.80937317881689	1.26492036947218
3	0.222222222222222	-0.170831031903525	0.498554791789118	0.909288795319485	0.903328458645007	0.611009067007127	-1.30720815463981
4	0.333333333333333	-1.34946411724311	-0.37993944166765	1.59983313708393	1.97209385460363	-1.19552788568963	0.127617175561458
5	0.444444444444444	-0.437515394956635	1.61614946935665	-0.93209545598186	0.0748961841454814	0.693632204380274	0.877115412256378
6	0.555555555555556	-0.940312330055435	1.85077079221207	1.65190740756596	0.0592554933884879	-1.47987770438441	-0.454990079577007
7	0.666666666666667	0.613760263455252	1.52450096923334	-0.630667166320666	0.150063754336294	0.223884280060953	-0.943647094786849
8	0.777777777777778	0.108068377103889	-0.357737724315795	1.32646524409712	-1.91127057196015	-0.517147050389021	-0.482527448619886
9	0.888888888888889	0.710984037027552	1.41118758736547	0.789147967284017	1.86775020935175	-1.35443662433216	-0.343186962983353
10	1	0.943095759490584	-1.0912970665677	-0.501530576759825	1.94074380133658	-0.201876833511974	0.574115518731907
